<svg width="36" height="28" viewBox="0 0 36 28" fill="none" xmlns="http://www.w3.org/2000/svg">
<path d="M17.6136 3.98343L17.4532 24.4789" stroke="white" stroke-linecap="round"/>
<line x1="20.4917" y1="24.5" x2="20.4917" y2="3.5" stroke="white" stroke-linecap="round"/>
<line x1="30.9917" y1="9.5" x2="30.9917" y2="17.5" stroke="white" stroke-linecap="round"/>
<line x1="7.60689" y1="10.8474" x2="7.50625" y2="18.8468" stroke="white" stroke-linecap="round"/>
<path d="M20.5846 3.21854L21.9917 2" stroke="white" stroke-linecap="round"/>
<path d="M16.1761 2L17.5832 3.21854" stroke="white" stroke-linecap="round"/>
<path d="M20.4917 24.5L21.8978 25.7176" stroke="white" stroke-linecap="round"/>
<path d="M16.1761 25.5879L17.4532 24.4789" stroke="white" stroke-linecap="round"/>
<path d="M28.9917 8V6" stroke="white" stroke-linecap="round"/>
<path d="M8.9917 8.5V6.5" stroke="white" stroke-linecap="round"/>
<path d="M28.2917 22V20" stroke="white" stroke-linecap="round"/>
<path d="M9.9917 22V21" stroke="white" stroke-linecap="round"/>
<path d="M20.5846 4.65399L24.8095 7.27385" stroke="white" stroke-linecap="round"/>
<path d="M13.1456 21.1731L17.3704 23.793" stroke="white" stroke-linecap="round"/>
<path d="M29.4172 8.41757L30.9917 9.39394" stroke="white" stroke-linecap="round"/>
<path d="M7.60709 19.1897L9.54897 20.5452" stroke="white" stroke-linecap="round"/>
<path d="M7.72644 10.9027L17.4532 5.30571" stroke="white" stroke-linecap="round"/>
<path d="M25.3611 10.7215L29.0335 8.44423" stroke="white" stroke-linecap="round"/>
<path d="M9.93069 20.5804L13.6031 18.3031" stroke="white" stroke-linecap="round"/>
<path d="M21.9917 25.9525L28.3657 22" stroke="white" stroke-linecap="round"/>
<path d="M9.93069 22.0945L15.8077 25.8877" stroke="white" stroke-linecap="round"/>
<path d="M22.4215 2L29.0344 6.10073" stroke="white" stroke-linecap="round"/>
<path d="M9.19595 6.10072L15.8089 2" stroke="white" stroke-linecap="round"/>
<path d="M9.19595 8.82455L28.2995 19.8197" stroke="white" stroke-linecap="round"/>
<path d="M20.5846 24.1891L30.6879 17.924" stroke="white" stroke-linecap="round"/>
<circle cx="24.9917" cy="11" r="0.5" fill="white" stroke="white"/>
<circle cx="13.9917" cy="18" r="0.5" fill="white" stroke="white"/>
</svg>
